HIERARCHY
ROOT Hips
{
	OFFSET 0.000000 0.000000 0.000000
	CHANNELS 6 Xposition Yposition Zposition Xrotation Yrotation Zrotation
	JOINT LeftUpLeg_virtual
	{
		OFFSET 0.000000 0.000000 0.000000
		CHANNELS 3 Xrotation Yrotation Zrotation
		JOINT LeftUpLeg
		{
			OFFSET 15.427100 -6.655098 0.678600
			CHANNELS 3 Xrotation Yrotation Zrotation
			JOINT LeftLeg
			{
				OFFSET 4.081073 -39.591068 13.024000
				CHANNELS 3 Xrotation Yrotation Zrotation
				JOINT LeftFoot
				{
					OFFSET -4.081074 -37.707932 -15.979700
					CHANNELS 3 Xrotation Yrotation Zrotation
					JOINT LeftToeBase
					{
						OFFSET 5.346399 -15.068900 20.645000
						CHANNELS 3 Xrotation Yrotation Zrotation
						JOINT LeftToe_End
						{
							OFFSET 2.754700 0.931300 11.300900
							CHANNELS 3 Xrotation Yrotation Zrotation
							End Site
							{
								OFFSET 0 0 0
							}
						}
					}
				}
			}
		}
	}
	JOINT RightUpLeg_virtual
	{
		OFFSET 0.000000 0.000000 0.000000
		CHANNELS 3 Xrotation Yrotation Zrotation
		JOINT RightUpLeg
		{
			OFFSET -15.569500 -6.655098 0.678600
			CHANNELS 3 Xrotation Yrotation Zrotation
			JOINT RightLeg
			{
				OFFSET -4.081825 -39.591045 13.023800
				CHANNELS 3 Xrotation Yrotation Zrotation
				JOINT RightFoot
				{
					OFFSET 4.081824 -37.707954 -15.979600
					CHANNELS 3 Xrotation Yrotation Zrotation
					JOINT RightToeBase
					{
						OFFSET -5.346400 -15.068900 20.645000
						CHANNELS 3 Xrotation Yrotation Zrotation
						JOINT RightToe_End
						{
							OFFSET -2.754700 0.931300 11.300900
							CHANNELS 3 Xrotation Yrotation Zrotation
							End Site
							{
								OFFSET 0 0 0
							}
						}
					}
				}
			}
		}
	}
	JOINT Spine_virtual
	{
		OFFSET 0.000000 0.000000 0.000000
		CHANNELS 3 Xrotation Yrotation Zrotation
		JOINT Spine
		{
			OFFSET -0.279200 12.230698 -2.892100
			CHANNELS 3 Xrotation Yrotation Zrotation
			JOINT Spine1
			{
				OFFSET -0.232667 10.192268 -1.242267
				CHANNELS 3 Xrotation Yrotation Zrotation
				JOINT Spine1_split
				{
					OFFSET -0.232667 10.192268 -1.242267
					CHANNELS 3 Xrotation Yrotation Zrotation
					JOINT Spine2
					{
						OFFSET -0.232667 10.192268 -1.242267
						CHANNELS 3 Xrotation Yrotation Zrotation
						JOINT Neck_virtual
						{
							OFFSET 0.000000 0.000000 0.000000
							CHANNELS 3 Xrotation Yrotation Zrotation
							JOINT Neck
							{
								OFFSET -0.418800 17.814194 8.416900
								CHANNELS 3 Xrotation Yrotation Zrotation
								JOINT Head
								{
									OFFSET 0.000000 7.031097 3.806800
									CHANNELS 3 Xrotation Yrotation Zrotation
									JOINT HeadTop_End
									{
										OFFSET 0.000000 24.646606 12.978600
										CHANNELS 3 Xrotation Yrotation Zrotation
										End Site
										{
											OFFSET 0 0 0
										}
									}
								}
							}
						}
						JOINT LeftShoulder_virtual
						{
							OFFSET 0.000000 0.000000 0.000000
							CHANNELS 3 Xrotation Yrotation Zrotation
							JOINT LeftShoulder
							{
								OFFSET 8.476499 7.247704 -3.868750
								CHANNELS 3 Xrotation Yrotation Zrotation
								JOINT LeftShoulder_split
								{
									OFFSET 8.476499 7.247704 -3.868750
									CHANNELS 3 Xrotation Yrotation Zrotation
									JOINT LeftArm
									{
										OFFSET 9.308998 -2.777710 0.208600
										CHANNELS 3 Xrotation Yrotation Zrotation
										JOINT LeftForeArm
										{
											OFFSET 29.972298 0.000000 0.000000
											CHANNELS 3 Xrotation Yrotation Zrotation
											JOINT LeftHand
											{
												OFFSET 26.026505 0.000000 0.000000
												CHANNELS 3 Xrotation Yrotation Zrotation
												End Site
												{
													OFFSET 0 0 0
												}
											}
										}
									}
								}
							}
						}
						JOINT RightShoulder_virtual
						{
							OFFSET 0.000000 0.000000 0.000000
							CHANNELS 3 Xrotation Yrotation Zrotation
							JOINT RightShoulder
							{
								OFFSET -7.570500 7.247704 -3.868750
								CHANNELS 3 Xrotation Yrotation Zrotation
								JOINT RightShoulder_split
								{
									OFFSET -7.570500 7.247704 -3.868750
									CHANNELS 3 Xrotation Yrotation Zrotation
									JOINT RightArm
									{
										OFFSET -9.308998 -2.777710 0.208500
										CHANNELS 3 Xrotation Yrotation Zrotation
										JOINT RightForeArm
										{
											OFFSET -29.972300 0.000000 0.000000
											CHANNELS 3 Xrotation Yrotation Zrotation
											JOINT RightHand
											{
												OFFSET -26.026505 0.000000 0.000000
												CHANNELS 3 Xrotation Yrotation Zrotation
												End Site
												{
													OFFSET 0 0 0
												}
											}
										}
									}
								}
							}
						}
					}
				}
			}
		}
	}
}
MOTION
Frames: 9
Frame Time: 0.03333333
-7.690480 80.872375 -5.561905 0.000000 0.000000 0.000000 22.904080 -65.172087 16.469751 -55.586743 -17.022418 19.475595 41.784413 -6.029820 7.329607 0.672246 4.220487 -17.308787 -3.190411 3.173534 -1.078747 0.000000 0.000000 0.000000 19.137591 -69.134041 15.686646 -46.189407 -0.812979 -19.449242 55.985551 -5.293132 3.814268 10.529690 -1.597212 20.913655 -5.144287 0.017140 4.196491 0.000000 0.000000 0.000000 25.890612 -67.182731 18.522483 8.975762 8.461570 -2.860177 -0.560362 11.442132 3.140032 0.038742 1.297936 0.230530 0.000000 0.000000 0.000000 10.989722 12.625831 0.568398 -0.239682 10.346386 -5.964830 -12.155041 9.716736 8.200161 0.000000 0.000000 0.000000 4.799019 13.912590 1.103539 5.908042 6.517892 -7.638252 9.519452 6.784902 -1.716346 -61.891042 -31.833825 -45.380528 6.423668 -78.287177 3.169662 0.000000 0.000000 0.000000 6.191100 12.931688 1.718389 -13.843816 4.097204 -1.686453 -4.035632 -1.838238 -9.179641 -78.747717 39.085751 106.695205 -8.014330 47.863637 6.305416 0.000000 0.000000 0.000000 
-7.405807 82.107574 -11.666260 0.000000 0.000000 0.000000 21.314886 -62.739570 13.561426 -57.703330 -16.046054 16.315452 41.791366 -4.165347 6.165649 2.882948 3.867865 -16.907705 -2.725669 2.814777 -1.467678 0.000000 0.000000 0.000000 19.068232 -68.912299 14.403081 -45.271819 -2.374125 -16.902765 54.001296 -3.513002 3.197696 11.360830 1.007881 24.865447 -7.133102 0.379760 2.776422 0.000000 0.000000 0.000000 28.334671 -68.691014 20.129986 8.123499 8.633025 -1.999799 -1.006547 11.555505 3.312154 -0.241073 0.817146 0.305610 0.000000 0.000000 0.000000 11.050201 12.894666 0.601921 0.746148 10.349373 -6.586718 -11.577257 10.570364 7.653848 0.000000 0.000000 0.000000 4.902092 14.024508 1.159827 5.737500 6.458463 -7.639713 9.469256 7.083711 -1.667614 -61.810343 -31.655113 -44.746062 5.729489 -77.461640 2.195982 0.000000 0.000000 0.000000 6.248227 13.192454 1.866322 -13.530076 4.753331 -1.733696 -4.457925 -1.926833 -10.137832 -78.366715 37.978007 105.515283 -7.731112 46.996425 6.046236 0.000000 0.000000 0.000000 
-6.930112 83.291641 -18.722725 0.000000 0.000000 0.000000 20.516896 -63.201277 11.712002 -58.594185 -11.680612 12.658507 41.539301 -2.215689 4.115733 7.262794 2.004480 -17.339110 -1.857784 2.035953 -0.832954 0.000000 0.000000 0.000000 21.755614 -70.082700 14.984836 -42.463628 -4.830027 -11.543583 50.447033 -3.081735 2.300230 9.213587 1.835244 26.133468 -7.891647 0.572119 1.119293 0.000000 0.000000 0.000000 31.977624 -71.728065 23.027052 7.026169 9.095521 -0.740100 -1.195767 11.885612 3.645645 -0.013584 0.759501 0.599879 0.000000 0.000000 0.000000 11.197930 13.369033 0.935787 1.689920 10.340690 -7.856183 -10.085625 11.468425 5.924329 0.000000 0.000000 0.000000 5.206893 14.298699 1.478954 5.606003 6.204160 -8.025870 9.918413 7.127398 -1.762777 -61.436937 -32.182144 -44.643008 7.277006 -77.813996 3.312402 0.000000 0.000000 0.000000 6.426053 13.614754 2.315948 -13.120386 5.811282 -1.583796 -4.899179 -2.005055 -10.328770 -78.010377 38.100182 103.727849 -7.294378 46.462304 5.629798 0.000000 0.000000 0.000000 
-6.639777 83.754066 -26.319458 0.000000 0.000000 0.000000 21.939597 -67.452626 12.467419 -58.184865 -5.679534 9.476450 41.897702 -0.614698 1.789943 12.154381 -0.631610 -18.052113 -1.063210 1.118643 0.639171 0.000000 0.000000 0.000000 27.318101 -73.167643 18.474876 -39.058150 -7.505415 -5.695594 47.888567 -4.153415 1.543798 4.482053 0.151880 24.000510 -6.931905 0.498702 -0.444443 0.000000 0.000000 0.000000 38.604192 -75.659276 28.978331 5.972326 9.711547 0.578475 -1.200656 12.395036 4.092500 0.364797 0.794035 0.915938 0.000000 0.000000 0.000000 11.238546 13.987582 1.504745 2.495695 10.258382 -9.362016 -8.358692 12.378127 3.450904 0.000000 0.000000 0.000000 5.564900 14.711550 1.978271 5.561349 5.903204 -8.710949 10.924092 6.806105 -1.859059 -60.485150 -33.257803 -44.817898 10.442918 -78.803772 5.972073 0.000000 0.000000 0.000000 6.704804 14.168265 2.960569 -12.693025 7.122224 -1.305197 -5.462406 -1.800642 -10.190123 -77.349748 39.059916 101.758679 -6.778295 46.239766 5.105160 0.000000 0.000000 0.000000 
-6.581834 83.018829 -33.879303 0.000000 0.000000 0.000000 27.971218 -74.236349 18.193015 -57.548790 0.166796 7.186220 43.617540 0.176071 -0.305572 16.150167 -3.239403 -18.396251 -0.191408 0.369568 2.053620 0.000000 0.000000 0.000000 37.953398 -77.698402 27.782640 -35.788788 -9.670361 -2.012664 48.180755 -6.248491 1.142367 -2.100101 -3.338440 18.763522 -5.974768 0.155819 -1.660902 0.000000 0.000000 0.000000 49.407710 -79.236246 39.311430 5.036913 10.436094 1.674087 -1.159813 13.031303 4.585803 0.652027 0.940250 1.143195 0.000000 0.000000 0.000000 11.090915 14.671088 2.146474 3.166032 9.959986 -10.619421 -7.061198 13.219000 0.912830 0.000000 0.000000 0.000000 5.856798 15.242102 2.518943 5.674099 5.805280 -9.753808 11.679078 5.829170 -1.310965 -58.880902 -34.548804 -44.982741 14.139333 -79.813909 9.204765 0.000000 0.000000 0.000000 6.948750 14.811238 3.625953 -12.407440 8.466376 -0.969014 -5.435585 -1.183783 -9.748826 -76.356146 39.981038 100.017766 -6.302997 46.546291 4.551396 0.000000 0.000000 0.000000 
-6.815276 80.945854 -41.676811 0.000000 0.000000 0.000000 46.946298 -81.124206 37.336184 -57.849933 4.153923 6.477795 46.917000 0.015937 -1.828109 17.048550 -4.590472 -17.815126 1.178306 -0.021995 2.675267 0.000000 0.000000 0.000000 63.279012 -82.522626 52.976190 -33.499663 -10.685798 -2.465166 51.584310 -8.281964 0.970464 -8.800616 -6.713915 11.860144 -5.812012 -0.238926 -2.470602 0.000000 0.000000 0.000000 66.908834 -81.635732 56.401486 4.226495 11.199672 2.426129 -1.186587 13.693481 4.989260 0.810051 1.237323 1.073245 0.000000 0.000000 0.000000 10.858755 15.381702 2.620285 3.828123 9.338376 -11.305666 -6.528211 13.960296 -1.066578 0.000000 0.000000 0.000000 5.988833 15.904609 2.937854 5.958014 6.066768 -11.103044 11.496336 4.527002 0.008876 -56.874620 -35.696631 -44.919917 16.658789 -80.444240 11.407508 0.000000 0.000000 0.000000 7.107576 15.512067 4.114726 -12.338779 9.572863 -0.732354 -4.378715 -0.366722 -9.154426 -75.482237 40.303287 99.022532 -5.955542 47.284331 4.041236 0.000000 0.000000 0.000000 
-7.302539 77.870514 -49.955887 0.000000 0.000000 0.000000 102.427730 -83.832260 93.169115 -59.022267 5.684891 7.297396 51.233782 -0.630221 -2.814127 13.473243 -3.818210 -15.720939 2.562733 -0.056379 2.165695 0.000000 0.000000 0.000000 124.101764 -83.405605 114.726947 -32.767098 -9.963764 -7.918806 56.070129 -9.206975 0.720793 -13.480355 -8.761904 5.999433 -4.808183 -0.569477 -2.697279 0.000000 0.000000 0.000000 91.483827 -82.600654 80.771993 3.544511 11.846521 2.756959 -1.304658 14.333089 5.146466 0.733860 1.544251 0.647169 0.000000 0.000000 0.000000 10.633451 16.097834 2.745708 4.406992 8.393870 -11.224736 -6.610888 14.363131 -2.106645 0.000000 0.000000 0.000000 6.020402 16.680165 3.040998 6.397663 6.665423 -12.546098 10.924510 2.807335 1.798998 -55.144144 -36.414955 -44.850178 16.660261 -80.727631 11.365234 0.000000 0.000000 0.000000 7.261017 16.266502 4.220181 -12.482912 10.216671 -0.609927 -2.838619 0.069618 -8.600812 -75.190322 39.617863 98.789527 -5.853313 48.363050 3.654335 0.000000 0.000000 0.000000 
-7.972917 74.460297 -58.756355 0.000000 0.000000 0.000000 141.715552 -80.693187 132.925931 -60.443827 4.435021 9.694751 55.741870 -1.709546 -3.277141 7.213643 -1.490089 -12.327205 2.492924 0.272312 0.771108 0.000000 0.000000 0.000000 155.015665 -78.836939 146.784686 -33.351322 -7.099127 -17.618548 58.450321 -8.218690 -0.311181 -14.114638 -8.892204 3.616019 -2.500752 -0.761105 -2.350507 0.000000 0.000000 0.000000 113.341723 -82.075556 102.856843 2.948291 12.401497 2.742053 -1.406672 14.925907 4.976591 0.350311 1.981781 0.248951 0.000000 0.000000 0.000000 10.516530 16.767186 2.451998 4.926326 7.315830 -10.389443 -6.937008 14.197400 -2.068103 0.000000 0.000000 0.000000 6.044825 17.474400 2.743589 6.928856 7.540559 -13.915938 10.256923 0.348180 3.752388 -53.980935 -36.665077 -45.019235 14.388743 -80.954694 9.349352 0.000000 0.000000 0.000000 7.438506 17.034627 3.873323 -12.813831 10.287653 -0.596644 -0.572793 0.149059 -7.672480 -75.895109 38.208331 99.192515 -6.029151 49.495178 3.455888 0.000000 0.000000 0.000000 
-8.844203 71.507019 -68.358551 0.000000 0.000000 0.000000 155.569689 -76.878273 147.320446 -61.291461 0.700748 13.516351 58.850454 -3.041249 -3.278620 1.610442 1.118535 -8.737098 0.358096 0.905036 -0.513719 0.000000 0.000000 0.000000 162.432786 -74.199869 154.958646 -34.180657 -2.485725 -28.623081 56.586693 -5.283416 -1.995035 -10.380083 -7.014059 5.520955 -0.542132 -0.730560 -1.712339 0.000000 0.000000 0.000000 128.510078 -80.826478 118.741036 2.536563 12.721002 2.454477 -1.385947 15.376076 4.482166 -0.113582 2.277620 0.169183 0.000000 0.000000 0.000000 10.486720 17.282390 1.834126 5.376360 6.322797 -9.028907 -7.159365 13.712050 -1.171960 0.000000 0.000000 0.000000 6.086839 18.138976 2.087872 7.429957 8.527145 -14.908575 9.872074 -2.444622 5.261993 -53.425531 -36.482540 -45.372267 11.180347 -81.251398 6.569983 0.000000 0.000000 0.000000 7.673204 17.692994 3.166615 -13.165865 9.803170 -0.692395 2.139184 -0.234238 -6.189204 -77.739355 36.792638 100.159547 -6.400458 50.020918 3.472729 0.000000 0.000000 0.000000 
